Coordinates
version=1
nRows=9
nColumns=24
inDegrees=yes

Units are S.I. units (second, meters, Newtons, ...)
Angles are in degrees.

endheader
time	pelvis_tilt	pelvis_list	pelvis_rotation	pelvis_tx	pelvis_ty	pelvis_tz	hip_flexion_r	hip_adduction_r	hip_rotation_r	knee_angle_r	ankle_angle_r	subtalar_angle_r	mtp_angle_r	hip_flexion_l	hip_adduction_l	hip_rotation_l	knee_angle_l	ankle_angle_l	subtalar_angle_l	mtp_angle_l	lumbar_extension	lumbar_bending	lumbar_rotation
      4.49000000	    -10.43128053	      0.44331565	      0.58085298	     -1.83715339	     -0.01264021	      0.49868313	     36.79254940	     -1.73142302	     -4.53130757	    -49.43065654	    -13.89567033	    -13.67270086	     12.45088630	      4.69755040	      5.35612072	     13.39818565	     -8.36593539	      3.64611766	      0.16489498	      5.26963505	      7.82572040	     -0.33743708	     -3.26309369
      4.49500000	    -10.49986549	      0.31467950	      1.01508958	     -1.83113753	     -0.01299713	      0.49841925	     37.06150758	     -1.76715318	     -4.86803076	    -47.76208931	    -13.28991405	    -12.88920729	     12.53889629	      4.16574393	      5.20050789	     13.61240610	     -7.99105736	      3.79299547	      0.36984591	      5.26588962	      7.82321106	     -0.35056748	     -3.60534991
      4.50000000	    -10.56449143	      0.19718686	      1.44911987	     -1.82513078	     -0.01339199	      0.49817304	     37.28430138	     -1.81757346	     -5.19012081	    -46.01725116	    -12.66076099	    -12.00050964	     12.67789597	      3.64757470	      5.05481335	     13.79375341	     -7.64419531	      3.93292281	      0.57753102	      5.28452409	      7.81194056	     -0.37559577	     -3.94685760
      4.50500000	    -10.64400198	      0.08308687	      1.87504383	     -1.81910947	     -0.01384207	      0.49795714	     37.48216951	     -1.87432284	     -5.50939720	    -44.19852717	    -12.04329847	    -11.01841274	     12.88274724	      3.15502947	      4.90716715	     13.96187239	     -7.31339191	      4.07131412	      0.79652734	      5.33367372	      7.81424276	     -0.40515502	     -4.23349023
      4.51000000	    -10.70913058	     -0.01475551	      2.31056025	     -1.81308778	     -0.01432053	      0.49775435	     37.61857387	     -1.95077630	     -5.80962358	    -42.31094562	    -11.38864920	     -9.94429545	     13.12746796	      2.66885021	      4.77871959	     14.09062455	     -7.02057286	      4.20306135	      1.01231056	      5.40184644	      7.79525844	     -0.45449424	     -4.54889265
      4.51500000	    -10.73698130	     -0.08497041	      2.76925967	     -1.80708991	     -0.01479339	      0.49755170	     37.67009473	     -2.06438236	     -6.08513902	    -40.36430603	    -10.70298184	     -8.75967577	     13.38167079	      2.17133073	      4.68174265	     14.19081925	     -6.78039604	      4.32464295	      1.23322606	      5.48819436	      7.73090864	     -0.53650618	     -4.92479381
      4.52000000	    -10.77392097	     -0.15435704	      3.21660926	     -1.80104401	     -0.01530859	      0.49738712	     37.69019272	     -2.17681277	     -6.35702233	    -38.36453653	    -10.05393688	     -7.50751283	     13.64562436	      1.68731781	      4.57839794	     14.28505877	     -6.55207667	      4.44769998	      1.46631542	      5.59217189	      7.67769287	     -0.61923045	     -5.24355142
      4.52500000	    -10.84184585	     -0.22742109	      3.63870347	     -1.79490540	     -0.01588932	      0.49726231	     37.70269298	     -2.27877816	     -6.62627355	    -36.31606638	     -9.47285134	     -6.22880226	     13.93664859	      1.23423835	      4.46481851	     14.35726592	     -6.32771099	      4.56769719	      1.70839340	      5.70751324	      7.66950958	     -0.69557014	     -5.48956027
      4.53000000	    -10.77431766	     -0.27538531	      4.12588573	     -1.78883929	     -0.01634758	      0.49711579	     37.51851239	     -2.42259109	     -6.87559279	    -34.24135951	     -8.83604477	     -4.85786854	     14.02340798	      0.67766659	      4.37111379	     14.45444984	     -6.18165173	      4.70814807	      1.99106094	      5.84615255	      7.49373177	     -0.80296973	     -5.86386490
